0
SECTION
2
HEADER
9
$INSUNITS
70
4
9
$ACADVER
1
AC1014
9
$HANDSEED
5
FFFF
0
ENDSEC
0
SECTION
2
TABLES
0
TABLE
2
VPORT
5
8
100
AcDbSymbolTable
0
ENDTAB
0
TABLE
2
LTYPE
5
5
100
AcDbSymbolTable
0
LTYPE
5
14
100
AcDbSymbolTableRecord
100
AcDbLinetypeTableRecord
2
BYBLOCK
70
0
0
LTYPE
5
15
100
AcDbSymbolTableRecord
100
AcDbLinetypeTableRecord
2
BYLAYER
70
0
0
ENDTAB
0
TABLE
2
LAYER
5
2
100
AcDbSymbolTable
70
2
0
LAYER
5
50
100
AcDbSymbolTableRecord
100
AcDbLayerTableRecord
2
0
70
0
6
CONTINUOUS
0
ENDTAB
0
TABLE
2
STYLE
5
3
100
AcDbSymbolTable
70
1
0
STYLE
5
11
100
AcDbSymbolTableRecord
100
AcDbTextStyleTableRecord
2
STANDARD
70
0
0
ENDTAB
0
TABLE
2
VIEW
5
6
100
AcDbSymbolTable
70
0
0
ENDTAB
0
TABLE
2
UCS
5
7
100
AcDbSymbolTable
70
0
0
ENDTAB
0
TABLE
2
APPID
5
9
100
AcDbSymbolTable
70
2
0
APPID
5
12
100
AcDbSymbolTableRecord
100
AcDbRegAppTableRecord
2
ACAD
70
0
0
ENDTAB
0
TABLE
2
DIMSTYLE
5
A
100
AcDbSymbolTable
70
1
0
ENDTAB
0
TABLE
2
BLOCK_RECORD
5
1
100
AcDbSymbolTable
70
1
0
BLOCK_RECORD
5
1F
100
AcDbSymbolTableRecord
100
AcDbBlockTableRecord
2
*MODEL_SPACE
0
BLOCK_RECORD
5
1B
100
AcDbSymbolTableRecord
100
AcDbBlockTableRecord
2
*PAPER_SPACE
0
ENDTAB
0
ENDSEC
0
SECTION
2
BLOCKS
0
BLOCK
5
20
100
AcDbEntity
100
AcDbBlockBegin
2
*MODEL_SPACE
0
ENDBLK
5
21
100
AcDbEntity
100
AcDbBlockEnd
0
BLOCK
5
1C
100
AcDbEntity
100
AcDbBlockBegin
2
*PAPER_SPACE
0
ENDBLK
5
1D
100
AcDbEntity
100
AcDbBlockEnd
0
ENDSEC
0
SECTION
2
ENTITIES
0
CIRCLE
5
100
100
AcDbEntity
8
0
100
AcDbCircle
10
-46.749999999999972
20
-40
30
0
40
15.250000000000004
210
0
220
-0
230
1
0
CIRCLE
5
101
100
AcDbEntity
8
0
100
AcDbCircle
10
102.75
20
-35
30
0
40
2.5
210
0
220
-0
230
1
0
CIRCLE
5
102
100
AcDbEntity
8
0
100
AcDbCircle
10
62.75
20
-35
30
0
40
2.5
210
0
220
-0
230
1
0
CIRCLE
5
103
100
AcDbEntity
8
0
100
AcDbCircle
10
102.75
20
45
30
0
40
2.5
210
0
220
-0
230
1
0
CIRCLE
5
104
100
AcDbEntity
8
0
100
AcDbCircle
10
62.75
20
45
30
0
40
2.5
210
0
220
-0
230
1
0
CIRCLE
5
105
100
AcDbEntity
8
0
100
AcDbCircle
10
-82.250000000000057
20
-31.000000000000078
30
0
40
15.250000000000004
210
0
220
-0
230
1
0
CIRCLE
5
106
100
AcDbEntity
8
0
100
AcDbCircle
10
-46.749999999999972
20
-0.999999999999997
30
0
40
15.250000000000004
210
0
220
-0
230
1
0
CIRCLE
5
107
100
AcDbEntity
8
0
100
AcDbCircle
10
-10.749999999999968
20
-40
30
0
40
15.250000000000002
210
0
220
-0
230
1
0
CIRCLE
5
108
100
AcDbEntity
8
0
100
AcDbCircle
10
19.749999999999993
20
-20
30
0
40
15.250000000000002
210
0
220
-0
230
1
0
CIRCLE
5
109
100
AcDbEntity
8
0
100
AcDbCircle
10
19.749999999999993
20
18.999999999999993
30
0
40
15.250000000000002
210
0
220
-0
230
1
0
CIRCLE
5
110
100
AcDbEntity
8
0
100
AcDbCircle
10
82.75
20
5.0000000000000018
30
0
40
12.000000000000002
210
0
220
-0
230
1
0
CIRCLE
5
111
100
AcDbEntity
8
0
100
AcDbCircle
10
-82.249999999999957
20
7.9999999999999289
30
0
40
15.250000000000004
210
0
220
-0
230
1
0
CIRCLE
5
112
100
AcDbEntity
8
0
100
AcDbCircle
10
-10.749999999999982
20
-0.99999999999999867
30
0
40
15.250000000000002
210
0
220
-0
230
1
0
LWPOLYLINE
5
113
100
AcDbEntity
8
0
100
AcDbPolyline
90
24
70
1
43
0.0
10
126.9999999999999
20
73.024999999999935
10
123.8249999999999
20
76.199999999999918
10
-123.82499999999986
20
76.199999999999903
10
-126.99999999999987
20
73.02499999999992
10
-126.99999999999987
20
53.187599999999904
10
-121.46279999999973
20
53.18759999999989
42
-0.99999999999999989
10
-121.4627999999999
20
48.41239999999992
10
-126.99999999999987
20
48.41239999999992
10
-126.99999999999987
20
-48.412399999999934
10
-121.46279999999379
20
-48.412399999999927
42
-0.99999999999999989
10
-121.46279999999379
20
-53.187599999999911
10
-126.99999999999987
20
-53.187599999999946
10
-126.99999999999987
20
-73.024999999999963
10
-123.82499999999986
20
-76.19999999999996
10
123.8249999999999
20
-76.199999999999932
10
126.9999999999999
20
-73.024999999999949
10
126.9999999999999
20
-53.187599999999932
10
121.46279999999395
20
-53.18759999999989
42
-0.99999999999999989
10
121.46279999999392
20
-48.41239999999992
10
126.9999999999999
20
-48.41239999999992
10
126.9999999999999
20
48.412399999999934
10
121.4627999999999
20
48.412399999999913
42
-0.99999999999999989
10
121.46279999999987
20
53.187599999999932
10
126.9999999999999
20
53.187599999999939
0
ENDSEC
0
SECTION
2
OBJECTS
0
DICTIONARY
5
C
100
AcDbDictionary
3
ACAD_GROUP
350
D
3
ACAD_MLINESTYLE
350
17
0
DICTIONARY
5
D
100
AcDbDictionary
0
DICTIONARY
5
1A
330
C
100
AcDbDictionary
0
DICTIONARY
5
17
100
AcDbDictionary
0
ENDSEC
0
EOF
